<?xml version="1.0" standalone="no"?>
<!DOCTYPE svg PUBLIC "-//W3C//DTD SVG 20010904//EN"
 "http://www.w3.org/TR/2001/REC-SVG-20010904/DTD/svg10.dtd">
<svg version="1.0" xmlns="http://www.w3.org/2000/svg"
 width="500.000000pt" height="500.000000pt" viewBox="0 0 500.000000 500.000000"
 preserveAspectRatio="xMidYMid meet">
<metadata>
Created by potrace 1.14, written by Peter Selinger 2001-2017
</metadata>
<g transform="translate(0.000000,500.000000) scale(0.100000,-0.100000)"
fill="#000000" stroke="none">
<path d="M2868 4156 c-10 -7 -42 -64 -73 -127 l-55 -114 -62 -1 c-69 -1 -199
-13 -210 -20 -8 -5 -14 2 -82 98 -67 94 -121 154 -146 161 -29 7 -56 -26 -87
-107 -27 -73 -29 -75 -68 -81 -52 -9 -107 -37 -164 -86 -46 -38 -78 -48 -96
-30 -57 54 -175 74 -270 47 -46 -14 -70 -29 -116 -75 -48 -49 -59 -65 -65
-107 -15 -89 2 -154 58 -215 22 -25 110 -89 123 -89 3 0 23 -11 44 -25 98 -66
134 -246 72 -370 -16 -33 -32 -77 -35 -98 -3 -20 -10 -45 -15 -55 -6 -9 -24
-47 -40 -83 -41 -88 -117 -162 -272 -265 -196 -131 -263 -206 -268 -300 -1
-23 3 -54 9 -70 17 -46 80 -104 145 -135 57 -28 65 -29 169 -24 60 2 112 8
115 12 3 5 38 21 76 36 126 49 335 185 469 307 21 19 44 40 51 45 6 6 41 38
77 73 l65 63 34 -15 c28 -12 30 -15 12 -15 -13 -1 -23 -7 -23 -16 0 -11 13
-15 53 -16 219 -2 461 -14 476 -24 4 -1 26 -6 51 -9 110 -15 209 -61 240 -112
26 -41 25 -68 -2 -94 -33 -30 -174 -79 -273 -94 -16 -2 -48 -7 -70 -11 -68
-10 -107 -14 -195 -21 -97 -7 -122 -9 -205 -19 -165 -21 -222 -7 -312 76 -37
34 -73 50 -73 34 0 -9 74 -76 115 -104 75 -52 106 -54 355 -26 19 2 71 6 115
10 84 6 163 14 205 20 14 2 43 6 65 10 150 21 281 74 312 126 46 76 -39 176
-182 215 -5 2 -22 5 -37 9 -15 3 -37 9 -50 14 l-23 10 23 0 c12 1 24 2 27 2 2
1 35 7 72 15 38 7 77 15 89 18 11 2 44 16 74 30 29 14 54 25 55 23 1 -1 7 -22
14 -46 17 -60 54 -139 84 -178 13 -18 68 -79 123 -136 54 -56 119 -126 143
-155 25 -28 53 -52 63 -52 17 0 15 6 -13 45 -17 24 -87 100 -155 169 -68 68
-124 128 -124 133 0 5 15 23 33 40 32 32 66 49 115 58 15 3 37 7 48 9 12 2 39
7 60 10 33 6 98 17 114 21 3 1 23 5 45 9 22 4 61 14 88 21 26 8 48 13 50 13 1
-1 25 7 54 16 52 17 103 63 103 92 0 20 -19 55 -40 76 -21 20 -86 53 -120 61
-81 19 -281 27 -360 14 -19 -3 -61 -9 -93 -12 -67 -8 -67 -9 -5 92 21 35 53
105 70 156 29 83 32 105 34 227 2 74 7 151 13 170 15 48 14 149 -2 180 -12 23
-17 25 -75 22 l-62 -4 -68 69 c-38 37 -86 82 -109 100 -32 25 -47 50 -74 115
-56 139 -118 242 -160 264 -34 17 -49 17 -71 0z m75 -42 c43 -43 82 -113 127
-226 29 -75 49 -112 67 -123 53 -35 153 -129 153 -144 0 -7 -22 -11 -57 -12
-113 -1 -330 -7 -463 -13 l-135 -6 -25 42 c-23 38 -165 189 -235 249 -43 38
-96 115 -89 132 7 20 -11 30 -25 14 -9 -12 -18 -41 -20 -70 -1 -5 -11 -5 -22
-2 -12 4 -28 8 -36 9 -19 3 -19 8 8 86 17 51 28 70 41 70 19 0 95 -87 160
-183 49 -73 55 -78 88 -72 139 23 270 21 380 -6 146 -35 150 -35 150 -6 0 38
-46 160 -66 174 -24 18 -47 -4 -75 -73 -23 -55 -43 -67 -78 -45 -12 8 -7 26
28 103 64 137 78 148 124 102z m4 -151 c9 -21 19 -52 23 -70 l8 -31 -47 14
c-25 7 -47 14 -48 14 -12 0 31 110 43 110 3 0 12 -17 21 -37z m33 -395 c1 -2
3 -21 7 -43 15 -105 105 -227 186 -252 60 -18 167 -14 215 10 53 25 59 18 57
-61 -7 -197 -78 -353 -260 -570 -55 -65 -158 -95 -325 -96 -191 0 -270 14
-523 91 -12 4 -16 11 -11 22 63 150 14 259 -149 336 l-69 32 24 22 c20 20 156
92 183 97 6 2 55 19 110 39 55 20 120 38 145 40 94 8 204 76 238 147 12 24 24
72 27 108 3 35 11 68 18 72 11 7 126 12 127 6z m790 -822 c97 -13 172 -57 185
-108 5 -21 1 -29 -23 -47 -32 -23 -132 -56 -197 -67 -22 -3 -42 -7 -45 -9 -3
-2 -26 -6 -50 -10 -25 -3 -52 -8 -60 -10 -8 -2 -31 -7 -50 -10 -124 -19 -179
-38 -226 -80 l-48 -42 -34 68 c-18 37 -36 86 -40 108 -7 40 -6 42 63 114 76
80 79 81 225 94 36 3 66 6 67 8 4 2 204 -5 233 -9z m-1280 -172 c19 -3 42 -9
50 -14 8 -4 38 -11 65 -15 28 -4 61 -9 75 -12 14 -2 72 -6 129 -8 57 -3 106
-6 108 -8 1 -2 -3 -4 -10 -5 -6 0 -48 -4 -92 -9 -131 -14 -390 -6 -445 14 -8
3 -31 7 -50 10 -19 3 -46 9 -59 14 -24 9 -24 10 -5 28 10 10 25 27 33 38 13
20 14 20 90 -4 42 -13 92 -26 111 -29z"/>
<path d="M3003 3345 c7 -42 -2 -44 -31 -10 -26 30 -42 25 -42 -13 0 -15 -5
-34 -10 -42 -15 -24 -32 3 -32 49 1 28 -4 41 -13 41 -19 0 -25 -23 -15 -64 15
-69 53 -87 87 -40 16 22 23 25 39 16 11 -6 25 -7 32 -3 16 10 21 52 9 79 -16
34 -30 26 -24 -13z"/>
<path d="M893 1877 c-4 -6 -7 -462 -4 -538 1 -15 20 -16 169 -15 155 2 171 4
204 24 94 58 110 202 29 257 l-29 19 24 29 c13 16 25 33 25 38 1 5 2 13 3 18
0 5 4 13 8 16 4 4 3 16 -3 26 -5 11 -7 19 -4 19 4 0 -3 17 -15 38 -35 61 -78
74 -253 76 -82 1 -151 -2 -154 -7z m267 -142 c15 -18 4 -55 -18 -56 -9 0 -34
-2 -54 -3 -30 -2 -39 2 -47 21 -18 40 -4 53 54 53 34 0 57 -5 65 -15z m11
-204 c15 -12 20 -23 15 -38 -7 -23 -33 -31 -102 -32 -39 -1 -42 1 -46 30 -3
16 -1 32 4 35 5 3 6 9 3 14 -3 4 20 8 49 9 38 0 61 -5 77 -18z"/>
<path d="M1374 1879 c-6 -10 -6 -538 1 -548 7 -13 134 -9 138 4 2 9 1 531 -2
545 -2 8 -132 7 -137 -1z"/>
<path d="M2399 1882 c-13 -2 -15 -42 -15 -281 l0 -279 66 1 66 1 0 144 c-1 79
2 146 5 148 3 1 6 -2 6 -9 0 -7 6 -39 13 -72 8 -33 14 -62 15 -65 0 -3 9 -37
18 -75 l18 -70 64 0 c35 0 62 2 59 4 -2 2 1 10 7 18 6 7 9 13 6 13 -3 0 1 24
9 53 8 28 16 66 19 82 9 45 25 105 30 105 2 0 4 -59 4 -131 1 -72 3 -134 6
-139 2 -4 33 -7 67 -6 l63 1 0 278 c0 182 -3 277 -10 278 -5 0 -49 1 -98 2
-75 2 -90 -1 -86 -15 0 -2 -4 -15 -10 -31 -6 -15 -13 -38 -15 -50 -2 -12 -9
-42 -16 -67 -7 -25 -13 -52 -15 -60 -13 -65 -25 -84 -31 -47 -3 23 -35 152
-41 167 -8 19 -7 17 -16 63 -5 25 -14 37 -25 38 -62 3 -151 4 -163 1z"/>
<path d="M2073 1724 c-31 -13 -94 -67 -95 -81 0 -4 -5 -19 -11 -33 -19 -47
-14 -141 11 -189 25 -48 45 -71 61 -71 6 0 11 -4 11 -8 0 -30 149 -35 215 -8
34 14 78 71 72 91 -2 6 -25 14 -50 19 -26 5 -47 13 -47 17 0 4 -13 3 -30 -2
-16 -6 -30 -14 -30 -18 0 -16 -42 -4 -63 18 l-22 22 122 -3 c96 -2 124 0 128
10 3 8 3 17 1 20 -2 4 -7 29 -10 56 -11 78 -49 135 -106 158 -36 15 -125 16
-157 2z m105 -110 c14 -4 22 -13 20 -22 -2 -12 -16 -16 -51 -16 -47 -1 -58 9
-35 32 13 13 31 15 66 6z"/>
<path d="M3095 1728 c-22 -6 -53 -24 -68 -40 -35 -37 -71 -113 -64 -139 3 -10
1 -22 -4 -25 -5 -3 -5 -13 1 -25 6 -10 8 -19 6 -19 -3 0 1 -18 9 -41 16 -44
64 -95 105 -111 34 -14 107 -18 143 -7 39 11 97 51 97 67 0 6 4 12 8 12 13 0
36 76 37 123 1 40 -5 63 -29 117 -33 73 -144 113 -241 88z m100 -132 c14 -10
19 -27 19 -69 1 -31 -3 -60 -9 -65 -22 -21 -52 -22 -76 -3 -32 26 -31 107 2
133 26 22 39 22 64 4z"/>
<path d="M3500 1724 c-19 -8 -45 -25 -58 -37 -28 -26 -64 -92 -55 -101 4 -3 2
-6 -4 -6 -16 0 -8 -112 11 -151 24 -50 46 -72 91 -94 98 -46 213 -14 267 75
31 51 35 161 8 213 -39 74 -88 106 -168 112 -36 2 -70 -2 -92 -11z m110 -132
c33 -27 33 -108 0 -134 -22 -17 -53 -17 -73 1 -12 11 -17 90 -7 116 8 20 20
28 51 34 4 0 17 -7 29 -17z"/>
<path d="M3994 1730 c-12 -5 -25 -14 -29 -20 -5 -8 -12 -7 -23 3 -16 14 -88
20 -122 11 -13 -3 -15 -33 -14 -196 1 -106 2 -195 3 -198 0 -3 32 -6 69 -7
l69 -1 2 107 c2 159 9 179 55 167 l25 -6 -2 -134 -2 -134 73 1 c44 0 72 4 73
11 0 6 0 75 0 152 -1 155 -12 201 -55 229 -28 19 -92 26 -122 15z"/>
<path d="M1566 1721 c-8 -13 -2 -297 6 -320 10 -28 43 -63 73 -78 26 -13 92
-5 121 13 17 12 23 12 26 2 3 -8 26 -13 69 -13 l65 -1 0 201 -1 200 -70 0 -70
0 -1 -110 c0 -60 -6 -122 -12 -137 -12 -29 -45 -38 -58 -16 -5 7 -9 67 -10
133 -1 66 -2 123 -3 126 -1 8 -131 8 -135 0z"/>
<path d="M2108 1034 c-2 -2 -19 -6 -37 -9 -19 -3 -46 -14 -60 -24 -32 -23 -67
-61 -56 -61 4 0 3 -6 -3 -13 -6 -7 -9 -37 -8 -68 4 -90 50 -134 177 -169 71
-19 89 -31 89 -58 0 -44 -82 -58 -117 -19 -11 12 -23 30 -26 40 -6 16 -17 18
-77 15 l-71 -3 5 -38 c12 -85 62 -144 137 -165 53 -14 160 -7 200 13 57 29
103 96 103 150 -1 130 -53 176 -251 222 -22 5 -38 39 -23 48 5 3 22 7 39 9 29
3 64 -18 73 -45 3 -9 21 -9 76 1 80 13 80 14 44 85 -18 35 -35 51 -81 71 -29
13 -125 26 -133 18z"/>
<path d="M2394 1018 c-4 -7 -5 -111 -4 -449 l0 -106 68 2 67 1 0 61 c-1 90 17
95 54 17 17 -36 31 -68 31 -72 0 -4 36 -8 80 -9 l79 -1 -13 32 c-7 18 -35 75
-61 128 l-48 96 48 66 c47 63 49 64 60 42 7 -12 15 -34 19 -49 3 -14 11 -39
17 -54 6 -15 10 -29 10 -30 0 -2 18 -52 40 -114 48 -137 41 -164 -40 -151
l-33 5 6 -44 c10 -69 12 -78 17 -83 2 -2 24 -7 49 -9 64 -7 123 22 145 71 9
20 20 44 24 52 10 19 26 82 23 93 -1 4 3 7 8 7 6 0 9 3 8 8 -3 10 13 74 23 92
4 8 20 56 34 105 15 50 30 100 35 112 5 12 6 24 2 26 -6 3 -96 2 -128 -2 -7 0
-15 -16 -18 -33 -4 -18 -8 -42 -10 -53 -3 -11 -5 -21 -6 -22 -3 -4 -5 -12 -14
-55 -5 -21 -13 -38 -19 -38 -6 0 -8 3 -4 6 3 3 -3 30 -13 60 -11 30 -16 54
-12 54 3 0 1 5 -6 12 -7 7 -12 22 -12 35 0 29 -24 41 -83 38 -26 -1 -51 3 -56
9 -6 7 -41 11 -86 11 l-75 0 -35 -49 c-19 -27 -35 -43 -36 -35 0 8 -2 57 -3
109 -2 52 -3 100 -4 105 -2 11 -121 14 -128 3z"/>
</g>
</svg>
